# xmcd
#
# Track frame offsets: 
#        150
#        23566
#        48767
#        85113
#        102439
#        129215
#
# Disc length: 2067 seconds
#
# Revision: 0
# Processed by: cddbd v1.5.2PL0 Copyright (c) Steve Scherf et al.
# Submitted via: ExactAudioCopyFreeDBPlugin 1.0
#
DISCID=39081106
DTITLE=大崎晋司 with karajishi bros. - 悪名
DYEAR=1900
DGENRE=Blues
TTITLE0=OLD CROW
TTITLE1=殺しの免許証
TTITLE2=年老いた狼のブルース
TTITLE3=大阪リバー
TTITLE4=中仙道走歌
TTITLE5=色褪せた宝物
EXTD=
EXTT0=
EXTT1=
EXTT2=
EXTT3=
EXTT4=
EXTT5=
PLAYORDER=
